<?xml version="1.0" standalone="no"?>
<!DOCTYPE svg PUBLIC "-//W3C//DTD SVG 20010904//EN"
 "http://www.w3.org/TR/2001/REC-SVG-20010904/DTD/svg10.dtd">
<svg version="1.0" xmlns="http://www.w3.org/2000/svg"
 width="451.000000pt" height="451.000000pt" viewBox="0 0 451.000000 451.000000"
 preserveAspectRatio="xMidYMid meet">
<metadata>
Created by potrace 1.11, written by Peter Selinger 2001-2013
</metadata>
<g transform="translate(0.000000,451.000000) scale(0.100000,-0.100000)"
fill="#000000" stroke="none">
<path d="M2100 4457 c-3 -2 -41 -7 -85 -11 -44 -3 -91 -8 -105 -11 -14 -3 -36
-7 -50 -10 -14 -3 -41 -8 -60 -11 -158 -27 -397 -112 -576 -204 -100 -51 -291
-170 -326 -202 -7 -7 -34 -29 -58 -48 -99 -77 -207 -183 -333 -329 -51 -59
-174 -245 -230 -349 -113 -209 -208 -488 -233 -687 -3 -22 -7 -46 -9 -53 -17
-51 -24 -371 -11 -512 11 -117 54 -326 92 -446 244 -770 889 -1348 1689 -1513
154 -31 164 -32 420 -36 275 -4 317 0 555 51 214 45 524 181 729 318 461 309
785 763 921 1290 16 63 32 136 36 163 3 26 8 50 9 54 25 40 26 499 2 654 -51
332 -173 644 -359 916 -32 47 -67 95 -76 105 -9 11 -30 37 -46 59 -54 73 -270
279 -376 359 -247 184 -510 310 -820 391 -31 8 -217 43 -260 49 -59 9 -434 20
-440 13z"/>
</g>
</svg>
